<?xml version="1.0" encoding="UTF-8" ?>
<!DOCTYPE svg PUBLIC "-//W3C//DTD SVG 1.1//EN" "http://www.w3.org/Graphics/SVG/1.1/DTD/svg11.dtd">
<svg width="701pt" height="661pt" viewBox="0 0 701 661" version="1.1" xmlns="http://www.w3.org/2000/svg">
<g id="#e3e3e3ff">
</g>
<g id="#0288c7ff">
<path fill="#0288c7" opacity="1.00" d=" M 285.96 21.87 C 303.87 19.82 321.90 19.33 339.90 19.07 C 329.56 37.24 320.04 55.92 312.42 75.41 C 309.60 82.14 307.62 89.18 304.73 95.88 C 298.51 97.22 292.14 97.65 285.90 98.92 C 259.46 103.88 234.07 113.89 211.04 127.76 C 220.51 95.17 235.80 64.26 256.06 37.02 C 259.16 32.91 262.16 28.30 267.01 26.09 C 272.96 23.40 279.56 22.77 285.96 21.87 Z" />
<path fill="#0288c7" opacity="1.00" d=" M 356.83 32.83 C 359.28 28.90 361.71 24.92 364.92 21.54 C 417.83 28.46 469.00 49.18 511.56 81.43 C 557.50 116.66 593.98 164.56 614.00 219.00 C 616.33 225.71 619.05 232.35 620.26 239.39 C 616.91 236.51 614.11 233.07 611.39 229.61 C 600.76 216.63 590.39 203.39 578.70 191.31 C 555.62 168.03 529.13 148.11 500.10 132.84 C 451.61 107.25 396.80 93.86 341.99 93.78 C 337.10 93.81 332.21 94.01 327.32 93.94 C 334.99 72.62 344.60 51.93 356.83 32.83 Z" />
<path fill="#0288c7" opacity="1.00" d=" M 213.36 41.35 C 219.31 39.17 225.13 36.61 231.24 34.92 C 227.34 43.22 222.17 50.83 218.00 59.00 C 203.60 84.98 192.54 112.86 185.92 141.84 C 185.39 145.11 183.63 147.98 180.97 149.95 C 133.11 190.69 103.94 252.20 102.13 314.98 C 101.83 321.77 102.33 328.58 101.90 335.36 C 99.53 328.99 98.68 322.21 97.36 315.58 C 82.76 236.57 101.46 152.23 147.43 86.41 C 153.06 77.93 159.99 70.30 168.15 64.19 C 181.74 53.96 197.57 47.34 213.36 41.35 Z" />
<path fill="#0288c7" opacity="1.00" d=" M 91.04 130.01 C 95.28 125.16 99.34 120.10 104.26 115.90 C 103.65 118.02 103.01 120.12 102.23 122.18 C 91.42 149.45 81.59 177.31 76.38 206.26 C 72.00 231.89 70.64 258.04 72.44 283.99 C 74.65 312.42 80.48 340.54 89.29 367.66 C 96.93 391.08 108.60 412.91 120.56 434.36 C 122.51 437.67 124.32 441.08 125.85 444.61 C 106.48 448.39 86.72 449.93 66.99 450.20 C 59.89 450.07 52.75 450.34 45.70 449.33 C 29.86 414.77 21.50 376.90 20.25 338.95 C 17.47 263.86 42.39 187.55 91.04 130.01 Z" />
<path fill="#0288c7" opacity="1.00" d=" M 459.05 136.84 C 474.72 142.13 489.37 150.10 503.64 158.38 C 558.65 190.98 602.45 241.59 627.92 300.13 C 636.26 320.41 634.37 342.98 631.15 364.14 C 629.50 372.99 628.34 381.95 626.09 390.67 C 617.42 377.92 610.46 364.07 601.72 351.34 C 589.73 333.38 575.79 316.73 560.36 301.64 C 556.85 298.05 551.67 295.06 551.50 289.45 C 544.30 238.34 518.83 190.11 480.91 155.12 C 474.07 148.49 466.32 142.95 459.05 136.84 Z" />
<path fill="#0288c7" opacity="1.00" d=" M 236.19 196.85 C 237.52 197.51 238.86 198.15 240.17 198.85 C 312.87 240.82 385.57 282.80 458.28 324.77 C 463.98 328.19 469.96 331.15 475.41 334.98 C 469.77 338.99 463.55 342.05 457.64 345.60 C 388.08 385.73 318.56 425.90 249.01 466.03 C 244.79 468.50 240.62 471.07 236.19 473.15 C 235.97 389.44 236.16 305.72 236.10 222.00 C 236.18 213.62 235.93 205.23 236.19 196.85 Z" />
<path fill="#0288c7" opacity="1.00" d=" M 554.15 324.73 C 566.89 337.28 577.43 351.87 587.21 366.79 C 597.41 381.88 607.04 397.60 613.04 414.90 C 614.36 418.84 616.01 422.96 615.29 427.20 C 612.53 443.51 604.91 458.47 596.58 472.58 C 593.07 478.26 589.92 484.18 585.97 489.59 C 578.60 479.02 572.28 467.74 564.73 457.28 C 555.41 443.41 544.73 430.56 533.83 417.93 C 537.94 407.18 542.52 396.56 545.42 385.38 C 551.05 365.67 553.69 345.20 554.15 324.73 Z" />
<path fill="#0288c7" opacity="1.00" d=" M 504.82 481.82 C 513.43 469.71 520.69 456.74 527.96 443.80 C 538.59 455.15 547.55 467.97 555.99 481.00 C 561.94 490.68 567.78 500.51 572.21 511.00 C 569.25 515.95 565.29 520.18 561.59 524.58 C 539.52 550.35 513.57 572.88 484.53 590.48 C 416.88 631.44 332.74 644.79 255.93 625.46 C 269.47 622.25 283.37 620.82 297.01 618.02 C 380.89 602.94 456.44 551.50 504.82 481.82 Z" />
<path fill="#0288c7" opacity="1.00" d=" M 142.40 462.32 C 144.20 461.91 146.04 461.63 147.85 461.25 C 151.95 465.48 155.31 470.35 159.28 474.71 C 170.95 487.75 183.95 499.64 198.27 509.73 C 205.29 514.98 213.08 519.04 220.36 523.89 C 191.97 531.48 162.35 533.94 133.03 533.30 C 124.00 532.92 114.94 532.47 106.00 531.10 C 100.97 530.30 95.96 528.35 92.44 524.55 C 77.42 508.98 66.41 490.14 56.17 471.24 C 85.14 472.00 114.20 469.00 142.40 462.32 Z" />
<path fill="#0288c7" opacity="1.00" d=" M 426.34 528.34 C 433.86 524.93 440.68 520.21 448.15 516.73 C 438.64 527.10 427.36 535.69 416.21 544.21 C 389.04 563.98 358.72 579.59 326.61 589.56 C 283.79 602.73 238.10 606.28 193.74 600.22 C 177.22 596.89 162.58 587.71 149.26 577.74 C 140.14 570.55 130.91 563.38 122.67 555.16 C 133.13 554.89 143.59 555.38 154.05 554.77 C 185.25 553.19 216.30 547.73 246.00 537.98 C 249.31 536.67 252.74 537.93 255.90 539.06 C 311.16 558.27 373.88 554.13 426.34 528.34 Z" />
</g>
</svg>
